<svg xmlns="http://www.w3.org/2000/svg" width="66.01" height="66.401" viewBox="0 0 66.01 66.401"><g transform="translate(-4.75 -4.75)"><g transform="translate(5.706 5.706)"><ellipse cx="21.754" cy="18.407" rx="21.754" ry="18.407" transform="translate(0 8.772)" fill="#e43e00"></ellipse><path d="M47.095,20.769s-4.044.268-6.1-.956A13.861,13.861,0,0,1,38.3,24.6,43.458,43.458,0,0,1,36.673,20s-3.951,1.716-6.153.94a11.859,11.859,0,0,0,3.634-3.344,8.709,8.709,0,0,1-3.634-2.148,28.774,28.774,0,0,1,5.257-1.213,19.912,19.912,0,0,1,2.011-.186q.082-.336.18-.656c.082-.279.164-.546.251-.814A17.3,17.3,0,0,1,41.461,6.5l2.476,2.153a14.739,14.739,0,0,0-2.787,5.541c2.137.24,5.918.836,8.2,2.224a22.744,22.744,0,0,1-6.29.765S46.827,19.6,47.095,20.769Z" transform="translate(-17.394 -6.5)" fill="#bae543"></path><ellipse cx="18.407" cy="21.754" rx="18.407" ry="21.754" transform="translate(17.15 59.789) rotate(-82.527)" fill="#fc4b00"></ellipse><path d="M85.63,53.821s-4.044-.262-5.929-1.738a14,14,0,0,1-3.29,4.394,43.194,43.194,0,0,1-1.016-4.782s-4.142,1.191-6.224.137a11.88,11.88,0,0,0,4.038-2.847,8.733,8.733,0,0,1-3.323-2.6,29.009,29.009,0,0,1,5.377-.525c.65,0,1.328.022,2.011.082h.005c.06-.153.126-.311.191-.465A18.319,18.319,0,0,1,81.9,38.94l2.17,2.459a14.7,14.7,0,0,0-3.487,5.131c2.093.514,5.76,1.6,7.842,3.273a22.843,22.843,0,0,1-6.339-.066s3.426,2.9,3.541,4.082Z" transform="translate(-34.922 -21.212)" fill="#bae543"></path></g><g transform="translate(4.75 4.75)"><path d="M15.048,75.75a.956.956,0,0,0-1.392,1.312,20.975,20.975,0,0,0,1.735,1.643.956.956,0,0,0,1.234-1.461,19.006,19.006,0,0,1-1.577-1.494Z" transform="translate(-8.671 -36.814)" fill="#111b35"></path><path d="M66.022,40.411a.957.957,0,0,0-1.554,1.115,15.6,15.6,0,0,1,3,11.266,16.043,16.043,0,0,1-7.581,11.392A22.8,22.8,0,0,1,44.57,67.379a22.781,22.781,0,0,1-13.963-7.043,16.046,16.046,0,0,1-4.378-12.967c.929-7.08,7-12.812,15.17-14.376a10.983,10.983,0,0,0,1.016.725,12.245,12.245,0,0,1-2.573,1.6c-.121.059-.229.113-.324.164a.956.956,0,0,0,.005,1.7c1.728.874,4.4.5,5.881.185.4,2.214.848,3.795.869,3.871a.956.956,0,0,0,1.481.51,12.767,12.767,0,0,0,3.094-3.819,16.642,16.642,0,0,0,5.5,1.345.941.941,0,0,0,.748-.288.956.956,0,0,0,.266-.757,5.93,5.93,0,0,0-1.773-2.769c.64.01,1.257-.009,1.8-.038a21.975,21.975,0,0,1,3.647,2.446A.957.957,0,1,0,62.264,36.4a23.549,23.549,0,0,0-2.223-1.629.929.929,0,0,0,.093-.207.957.957,0,0,0-.321-1,20.8,20.8,0,0,0-7.083-3.164,12.5,12.5,0,0,1,2.761-3.783.957.957,0,0,0,.083-1.35L53.4,22.8a.956.956,0,0,0-1.35-.083,16.475,16.475,0,0,0-3.126,3.83A20.526,20.526,0,0,0,38.537,15.982a.933.933,0,0,0,.067-.221.956.956,0,0,0-.449-.953A20.784,20.784,0,0,0,30.72,12.6a12.54,12.54,0,0,1,2.249-4.109.956.956,0,0,0-.093-1.349L30.4,4.985a.956.956,0,0,0-1.349.093,18.071,18.071,0,0,0-3.393,6.285c-.005.014-.013.026-.017.04q-.15.458-.286.934a29.425,29.425,0,0,0-6.845,1.415.949.949,0,0,0-.428,1.488C10.044,18.35,4.75,25.266,4.75,32.883a16.916,16.916,0,0,0,2.334,8.568.956.956,0,0,0,1.656-.957,15.028,15.028,0,0,1-2.077-7.61c0-7.14,5.272-13.615,13.16-16.231a10.756,10.756,0,0,0,1.109.585,12.23,12.23,0,0,1-2.344,1.918l-.3.2a.956.956,0,0,0,.228,1.689c1.825.64,4.427-.08,5.854-.584.684,2.144,1.336,3.652,1.366,3.724a.956.956,0,0,0,.686.556.987.987,0,0,0,.191.019.958.958,0,0,0,.656-.262,12.783,12.783,0,0,0,2.568-4.19,16.691,16.691,0,0,0,5.629.616.955.955,0,0,0,.869-1.168,5.924,5.924,0,0,0-2.119-2.514c.63-.075,1.234-.174,1.765-.273C41.875,19.2,46.218,23.61,47.7,28.869c-.086.186-.173.371-.256.562a29.584,29.584,0,0,0-6.971.51.949.949,0,0,0-.616,1.425c-8.38,2.034-14.531,8.2-15.523,15.752a16.8,16.8,0,0,0-.123,3,23.165,23.165,0,0,1-8.654-2.924.956.956,0,0,0-.968,1.649,25.144,25.144,0,0,0,9.829,3.224,18.782,18.782,0,0,0,4.775,9.554,24.69,24.69,0,0,0,15.128,7.653,27.017,27.017,0,0,0,3.516.232A24.154,24.154,0,0,0,60.915,65.79a17.925,17.925,0,0,0,8.444-12.752,17.716,17.716,0,0,0-3.337-12.628ZM31.455,15.434a.956.956,0,0,0-.6,1.757,25.543,25.543,0,0,1,2.49,1.819,8.662,8.662,0,0,1-3.552-.814.957.957,0,0,0-1.4.526,16.1,16.1,0,0,1-1.5,3.2c-.291-.784-.656-1.822-1-2.991a.956.956,0,0,0-1.3-.607,15.885,15.885,0,0,1-2.961.906,9.459,9.459,0,0,0,1.635-1.924.957.957,0,0,0-.551-1.43,8.943,8.943,0,0,1-1.87-.825,27.761,27.761,0,0,1,4.015-.746c-.08.378-.156.76-.225,1.148a.957.957,0,0,0,.776,1.108.97.97,0,0,0,.167.015.957.957,0,0,0,.94-.791c.144-.82.322-1.614.524-2.378q.107-.4.222-.792c.019-.064.039-.128.058-.191A17.6,17.6,0,0,1,29.9,7.081l1.034.9a16.6,16.6,0,0,0-2.39,5.158.956.956,0,0,0,.813,1.216,31.318,31.318,0,0,1,5.028.945,13.717,13.717,0,0,1-2.928.133ZM46.7,31.318q-.194.546-.373,1.108A.956.956,0,1,0,48.153,33c.251-.8.531-1.558.829-2.288q.159-.389.328-.762c.026-.058.052-.115.079-.172a17.6,17.6,0,0,1,3.243-4.968l.908,1.027a16.6,16.6,0,0,0-3.042,4.8.956.956,0,0,0,.648,1.312,31.351,31.351,0,0,1,4.864,1.593,14.2,14.2,0,0,1-2.924-.245.956.956,0,0,0-.825,1.663,25.606,25.606,0,0,1,2.23,2.127,8.658,8.658,0,0,1-3.413-1.268.957.957,0,0,0-1.454.339,16.106,16.106,0,0,1-1.9,2.977c-.187-.816-.41-1.894-.6-3.094a.956.956,0,0,0-1.211-.77,15.738,15.738,0,0,1-3.06.518,9.472,9.472,0,0,0,1.879-1.7.956.956,0,0,0-.36-1.489,8.962,8.962,0,0,1-1.749-1.066A27.788,27.788,0,0,1,46.7,31.32Z" transform="translate(-4.75 -4.75)" fill="#111b35"></path><path d="M48.152,91.854a.956.956,0,0,0-.613,1.206,15.448,15.448,0,0,0,1.648,3.476.957.957,0,0,0,.809.444.946.946,0,0,0,.511-.149.956.956,0,0,0,.3-1.32,13.486,13.486,0,0,1-1.444-3.043.956.956,0,0,0-1.206-.614Z" transform="translate(-24.134 -44.232)" fill="#111b35"></path></g></g></svg>