<svg xmlns="http://www.w3.org/2000/svg" width="45.67" height="69.682" viewBox="0 0 45.67 69.682"><g transform="translate(-88.214)"><circle cx="15.243" cy="15.243" r="15.243" transform="translate(102.334 20.687)" fill="#a0d755"></circle><path d="M221.655,162.413a15.235,15.235,0,1,0-27.836,12.1l-.017,0a15.179,15.179,0,0,0,17.432,7.424,15.219,15.219,0,0,1-3.71-2.641c-1.458-1.41-1.069-3.165.818-3.906A24.02,24.02,0,0,0,221.655,162.413Z" transform="translate(-89.629 -131.313)" fill="#87be4b"></path><circle cx="20.687" cy="20.687" r="20.687" transform="translate(89.268 1.089)" fill="#b4e66e"></circle><path d="M128.626,44.715A20.662,20.662,0,0,1,113.3,10.169a20.674,20.674,0,1,0,18.677,34.25A20.729,20.729,0,0,1,128.626,44.715Z" transform="translate(-6.694 -8.785)" fill="#a0d755"></path><g transform="translate(96.89 9.799)"><ellipse cx="2.178" cy="2.178" rx="2.178" ry="2.178" transform="translate(8.71)" fill="#ff6e64"></ellipse><ellipse cx="2.178" cy="2.178" rx="2.178" ry="2.178" transform="translate(0 13.065)" fill="#ff6e64"></ellipse><ellipse cx="2.178" cy="2.178" rx="2.178" ry="2.178" transform="translate(17.42 9.799)" fill="#ff6e64"></ellipse></g><path d="M133.884,35.932a16.177,16.177,0,0,0-2.781-9.1,21.777,21.777,0,0,0-4.237-18.756,1.021,1.021,0,0,0-1.586,1.285,19.709,19.709,0,0,1-14.306,32.073V36.354L116.13,31.2a1.021,1.021,0,1,0-1.443-1.443l-3.712,3.712V29.386a1.021,1.021,0,1,0-2.041,0V36.74l-4.8-4.8a1.021,1.021,0,0,0-1.443,1.443l6.247,6.247v1.8A19.708,19.708,0,1,1,122.345,6.423a1.021,1.021,0,1,0,1.285-1.586,21.751,21.751,0,1,0-21.079,37.375,16.454,16.454,0,0,0,6.381,7.515V67.64h-5.525a1.021,1.021,0,1,0,0,2.041h20.728a1.021,1.021,0,0,0,0-2.041h-5.525V52.193A16.314,16.314,0,0,0,133.884,35.932ZM105.2,42.981a21.855,21.855,0,0,0,3.729.494v3.769A14.453,14.453,0,0,1,105.2,42.981Zm5.771,24.659V50.822a15.9,15.9,0,0,0,1.956.728,1.021,1.021,0,1,0,.583-1.956,13.977,13.977,0,0,1-2.539-1.04V43.474A21.758,21.758,0,0,0,130.292,29.46a14.258,14.258,0,0,1-11.681,20.688v-4.4a1.021,1.021,0,1,0-2.041,0V67.64Z" transform="translate(0 0)"></path><path d="M150.658,165.376a1.021,1.021,0,1,0-2.041,0,1.161,1.161,0,1,1-1.741-1.007,1.021,1.021,0,1,0-1.022-1.767,3.2,3.2,0,1,0,4.8,2.774Z" transform="translate(-48.412 -140.354)"></path><path d="M278.916,141.328a1.021,1.021,0,1,0-2.041,0,1.161,1.161,0,1,1-1.741-1.006,1.021,1.021,0,1,0-1.022-1.767,3.2,3.2,0,1,0,4.8,2.774Z" transform="translate(-159.215 -119.579)"></path><path d="M214.787,69.184a1.021,1.021,0,1,0-2.041,0A1.161,1.161,0,1,1,211,68.177a1.021,1.021,0,1,0-1.022-1.767,3.2,3.2,0,1,0,4.8,2.774Z" transform="translate(-103.813 -57.253)"></path><path d="M224.713,144.59a1.021,1.021,0,0,0,0,1.443l1.091,1.091a1.021,1.021,0,0,0,1.443-1.443l-1.091-1.091A1.021,1.021,0,0,0,224.713,144.59Z" transform="translate(-117.664 -124.654)"></path><path d="M194.437,137.3a1.021,1.021,0,0,0-1.021-1.021h-.011a1.021,1.021,0,1,0,1.032,1.021Z" transform="translate(-89.998 -117.728)"></path><path d="M329.69,112.226h-.011a1.026,1.026,0,1,0,.011,0Z" transform="translate(-207.725 -96.952)"></path><path d="M177.3,72.145h-.011a1.026,1.026,0,1,0,.011,0Z" transform="translate(-76.078 -62.326)"></path><path d="M297.614,248.5a1.026,1.026,0,1,0,.011,0Z" transform="translate(-180.024 -214.68)"></path><path d="M161.26,224.452a1.026,1.026,0,1,0,.011,0Z" transform="translate(-62.228 -193.905)"></path><path d="M290.286,91.012l1.091-1.091a1.021,1.021,0,0,0-1.443-1.443l-1.091,1.091a1.021,1.021,0,1,0,1.443,1.443Z" transform="translate(-173.065 -76.177)"></path><path d="M146.365,107.343a1.021,1.021,0,0,0,.722-1.742L146,104.509a1.021,1.021,0,0,0-1.443,1.443l1.091,1.091A1.018,1.018,0,0,0,146.365,107.343Z" transform="translate(-48.412 -90.028)"></path><path d="M329.645,200.4a1.021,1.021,0,0,0-1.021,1.021v1.091a1.021,1.021,0,1,0,2.041,0v-1.091A1.021,1.021,0,0,0,329.645,200.4Z" transform="translate(-207.691 -173.13)"></path><path d="M344.656,145.312a1.021,1.021,0,0,0,1.021,1.021h1.091a1.021,1.021,0,0,0,0-2.041h-1.091A1.021,1.021,0,0,0,344.656,145.312Z" transform="translate(-221.541 -124.653)"></path><path d="M274.552,50.209V49.118a1.021,1.021,0,1,0-2.041,0v1.091a1.021,1.021,0,1,0,2.041,0Z" transform="translate(-159.215 -41.551)"></path><path d="M201.387,202.445h1.091a1.021,1.021,0,1,0,0-2.041h-1.091a1.021,1.021,0,1,0,0,2.041Z" transform="translate(-96.888 -173.13)"></path><path d="M329.69,330.7a1.021,1.021,0,0,0,0-2.041h-.011a1.021,1.021,0,1,0,.011,2.041Z" transform="translate(-207.725 -283.931)"></path><path d="M361.674,298.638a1.021,1.021,0,0,0,0-2.041h-.011a1.021,1.021,0,0,0,.011,2.041Z" transform="translate(-235.356 -256.231)"></path><path d="M265.481,328.661h-.011a1.026,1.026,0,1,0,.011,0Z" transform="translate(-152.255 -283.931)"></path></g></svg>