<svg xmlns="http://www.w3.org/2000/svg" width="69.558" height="69.555" viewBox="0 0 69.558 69.555"><g transform="translate(-4.738 -4.75)"><g transform="translate(5.772 10.472)"><path d="M64.13,14.5l3.62,1.565c-3.522,7.239-3.62,19.075-3.62,19.075H56.5A36.1,36.1,0,0,1,64.13,14.5Z" transform="translate(-27.154 -14.5)" fill="#bae543"></path><path d="M81.083,86.594C89.545,93.441,104.8,88.5,104.8,66.7s-15.26-26.74-23.722-19.892Z" transform="translate(-37.308 -26.661)" fill="#fc4b00"></path><path d="M66.083,86.594C74.545,93.441,89.8,88.5,89.8,66.7s-15.26-26.74-23.722-19.892Z" transform="translate(-31.112 -26.661)" fill="#e43e00"></path><path d="M30.222,86.594C21.76,93.441,6.5,88.5,6.5,66.7s15.26-26.74,23.722-19.892Z" transform="translate(-6.5 -26.661)" fill="#fc4b00"></path><path d="M45.222,86.594C36.76,93.441,21.5,88.5,21.5,66.7s15.26-26.74,23.722-19.892Z" transform="translate(-12.696 -26.661)" fill="#e43e00"></path><ellipse cx="13.056" cy="22.352" rx="13.056" ry="22.352" transform="translate(20.693 18.094)" fill="#fc4b00"></ellipse></g><g transform="translate(4.738 4.75)"><path d="M69.639,28.921c-.144.7-.278,1.435-.4,2.178a1.027,1.027,0,1,0,2.027.332c.117-.717.247-1.423.385-2.1a1.027,1.027,0,1,0-2.013-.411Z" transform="translate(-31.374 -14.394)" fill="#111b35"></path><path d="M65.644,29.3a13.786,13.786,0,0,0-12.456-1.842,13.654,13.654,0,0,0-9.238.152c.053-.713.117-1.427.19-2.141a1.027,1.027,0,1,0-2.043-.215c-.092.872-.162,1.745-.222,2.614a8.554,8.554,0,0,0-5.434.235,35.97,35.97,0,0,1,6.62-16.38l1.942.84a29.465,29.465,0,0,0-1.174,3.339,1.027,1.027,0,1,0,1.973.573,25.329,25.329,0,0,1,1.494-3.991,1.028,1.028,0,0,0-.516-1.393L43.158,9.528a1.026,1.026,0,0,0-1.18.265,35.557,35.557,0,0,0-6.737,13.681,31.136,31.136,0,0,1-1.736-12.239,6.42,6.42,0,0,0-1.667-4.86,5.388,5.388,0,0,0-3.91-1.626,1.027,1.027,0,0,0,0,2.054,3.353,3.353,0,0,1,2.436,1,4.512,4.512,0,0,1,1.087,3.369c-.193,6.45.856,11.691,3.1,15.612-.033.2-.066.4-.1.61a13.653,13.653,0,0,0-8.608.067c-5.789-1.969-12.077.11-16.119,5.376a1.028,1.028,0,1,0,1.631,1.251,12.637,12.637,0,0,1,11.5-5.217C19.28,31.1,13.549,36.8,13.549,50.513c0,13.589,5.683,19.3,9.07,21.492.083.054.17.1.255.152a11.884,11.884,0,0,1-8.3-2.121C9.559,66.548,6.8,59.615,6.8,50.513a31.937,31.937,0,0,1,2.04-11.943A1.028,1.028,0,1,0,6.933,37.8,33.983,33.983,0,0,0,4.745,50.513c0,9.794,3.073,17.326,8.652,21.209A14.051,14.051,0,0,0,21.444,74.3a13.656,13.656,0,0,0,4.413-.749,13.9,13.9,0,0,0,4.42.734,13.64,13.64,0,0,0,5.141-1.008,8.8,8.8,0,0,0,8.205,0,13.629,13.629,0,0,0,5.141,1.008,13.9,13.9,0,0,0,4.42-.734A13.656,13.656,0,0,0,57.6,74.3a14.054,14.054,0,0,0,8.047-2.582C71.223,67.839,74.3,60.307,74.3,50.513S71.223,33.187,65.644,29.3ZM23.732,70.28C20.7,68.314,15.6,63.131,15.6,50.514c0-12.975,5.338-18.1,8.52-20.008A11.746,11.746,0,0,1,34,29.414c-5.029,3.571-8.562,11.866-8.562,21.505,0,9.156,3.186,17.09,7.813,20.926a11.884,11.884,0,0,1-9.515-1.565Zm22.055,1.565C50.414,68.009,53.6,60.073,53.6,50.919a37.578,37.578,0,0,0-.963-8.559,1.027,1.027,0,0,0-2,.47,35.475,35.475,0,0,1,.909,8.09c0,9.458-3.492,17.494-8.31,20.277a1.036,1.036,0,0,0-.256.143,7.079,7.079,0,0,1-6.926,0A1.045,1.045,0,0,0,35.8,71.2c-4.818-2.783-8.31-10.819-8.31-20.277.005-11.76,5.4-21.326,12.034-21.326,3.782,0,7.4,3.271,9.684,8.751a1.027,1.027,0,1,0,1.9-.789,18.488,18.488,0,0,0-6.051-8.146,11.744,11.744,0,0,1,9.867,1.1c3.182,1.9,8.52,7.033,8.52,20.008,0,12.619-5.1,17.8-8.132,19.767a11.883,11.883,0,0,1-9.516,1.565Zm18.681-1.808a11.888,11.888,0,0,1-8.3,2.122c.085-.052.171-.1.255-.152,3.387-2.193,9.07-7.9,9.07-21.492,0-13.726-5.741-19.427-9.315-21.645a11.889,11.889,0,0,1,8.293,2.121c5.012,3.486,7.772,10.419,7.772,19.521s-2.76,16.035-7.771,19.523Z" transform="translate(-4.738 -4.75)" fill="#111b35"></path><path d="M77.333,94.3a1.027,1.027,0,0,0-1.233.772,24.719,24.719,0,0,1-1.424,4.383,1.027,1.027,0,0,0,.528,1.353,1.013,1.013,0,0,0,.411.087,1.026,1.026,0,0,0,.939-.615A26.713,26.713,0,0,0,78.1,95.534a1.027,1.027,0,0,0-.767-1.231Z" transform="translate(-33.592 -41.731)" fill="#111b35"></path></g></g></svg>