<svg xmlns="http://www.w3.org/2000/svg" width="49.417" height="70.461" viewBox="0 0 49.417 70.461"><g transform="translate(-22.448 -4.75)"><g transform="translate(23.484 5.79)"><path d="M68.018,55.294c-7.117,1.034-10.605-1.8-11.57-6.285C63.409,45.5,67.587,52.32,68.018,55.294Z" transform="translate(-37.267 -23.335)" fill="#bae543"></path><path d="M50.521,99.192c-5.2,3.389-12.167,2.557-15.9,1.746a2.873,2.873,0,0,1-2.2-3.38c.766-3.746,2.819-10.455,8.017-13.842s12.165-2.555,15.9-1.746a2.874,2.874,0,0,1,2.2,3.38c-.76,3.743-2.816,10.454-8.014,13.842Z" transform="translate(-27.503 -36.802)" fill="#d78759"></path><path d="M55.284,88.871c-1.463,4.335-4.067,9.4-8.64,12.38-6.428,4.186-15.038,3.163-19.658,2.158a3.558,3.558,0,0,1-2.723-4.18c.951-4.626,3.485-12.921,9.912-17.107,4.258-2.771,9.478-3.259,13.855-2.979a41.035,41.035,0,0,0-1.267,4.727,3.549,3.549,0,0,0,2.723,4.18,40.227,40.227,0,0,0,5.8.821Z" transform="translate(-24.191 -35.92)" fill="#f4a86c"></path><path d="M76.446,24.709c.909-13.1,7.319-18.223,15.69-18.209C95.7,20.274,81.918,25.091,76.446,24.709Z" transform="translate(-45.374 -6.5)" fill="#bae543"></path></g><g transform="translate(22.448 4.75)"><path d="M29.812,94.029a1.042,1.042,0,0,0,1.427-.357c.291-.486.595-.956.91-1.4a1.041,1.041,0,1,0-1.7-1.2c-.341.484-.675,1-.992,1.525a1.041,1.041,0,0,0,.355,1.429Z" transform="translate(-25.228 -39.55)" fill="#111b35"></path><path d="M46.559,115a1.041,1.041,0,1,0-.439-2.035,21.906,21.906,0,0,1-4.6.454,1.041,1.041,0,0,0,0,2.081,23.991,23.991,0,0,0,5.041-.5Z" transform="translate(-29.757 -48.61)" fill="#111b35"></path><path d="M71.254,5.53a1.058,1.058,0,0,0-1.038-.78c-5.725,0-15.438,2.482-16.676,18.931-1.438,2.408-1.41,5.449-1.033,8.585a9.375,9.375,0,0,0-2.516-1.942,8.2,8.2,0,0,0-7.794.211,1.041,1.041,0,0,0-.549,1.148C42.267,34.56,44.369,39,51.454,39a19.151,19.151,0,0,0,1.962-.119c.051.535.09,1.059.1,1.562.062,3.024-1.1,6.857-1.974,9.3a32.049,32.049,0,0,0-3.229-.435,1.037,1.037,0,0,0-.926-1.34c-5.834-.375-10.709.686-14.489,3.145a17.881,17.881,0,0,0-2.683,2.153,1.04,1.04,0,1,0,1.449,1.493,15.7,15.7,0,0,1,2.37-1.9c3.11-2.022,7.1-2.981,11.887-2.872-.343,1.154-.639,2.339-.886,3.538a4.6,4.6,0,0,0,3.525,5.408,42.349,42.349,0,0,0,4.579.728c-1.377,3.61-3.771,7.982-7.767,10.585-6.125,3.991-14.449,2.973-18.869,2.014a2.52,2.52,0,0,1-1.925-2.954A37.6,37.6,0,0,1,26.5,62.839a1.041,1.041,0,1,0-1.93-.778,39.688,39.688,0,0,0-2.036,6.832,4.608,4.608,0,0,0,3.522,5.4,38.941,38.941,0,0,0,8.146.913,22.451,22.451,0,0,0,12.3-3.216c3.94-2.566,7.072-7.034,9.059-12.92a1.033,1.033,0,0,0-.852-1.359c.319-1.026.6-2.081.825-3.165a3.93,3.93,0,0,0-1.985-4.231A30.982,30.982,0,0,0,55.6,40.407a43.379,43.379,0,0,0-.611-5.471c-.555-3.614-1.13-7.342.158-9.877a19.339,19.339,0,0,0,8.595-2.3,1.041,1.041,0,1,0-.973-1.839,17.9,17.9,0,0,1-7.084,2.05c1-10.233,5.727-15.782,13.741-16.119.958,4.484.015,8.252-2.808,11.209a1.041,1.041,0,1,0,1.506,1.437c2.417-2.534,4.924-7.014,3.127-13.963ZM43.892,32.05a5.935,5.935,0,0,1,5.138.119,8.86,8.86,0,0,1,3.9,4.686c-4.894.434-7.923-1.175-9.039-4.8Zm3.184,21.9c.178-.877.392-1.745.627-2.6A30.522,30.522,0,0,1,52,51.957l.033.007.033.006.032,0a1.837,1.837,0,0,1,1.4,2.159,31.091,31.091,0,0,1-.888,3.373c-1.179-.144-2.385-.341-3.609-.6a2.512,2.512,0,0,1-1.925-2.953Z" transform="translate(-22.448 -4.75)" fill="#111b35"></path></g></g></svg>